<svg width="26" height="26" viewBox="0 0 26 26" fill="none" xmlns="http://www.w3.org/2000/svg">
<g clip-path="url(#clip0_5_591)">
<path d="M25.7503 10.5882H13.2769V15.5863H20.4442C20.329 16.2936 20.0703 16.9895 19.6914 17.624C19.2573 18.3509 18.7207 18.9044 18.1707 19.3258C16.5231 20.5884 14.6022 20.8465 13.2682 20.8465C9.89832 20.8465 7.01895 18.6685 5.90429 15.709C5.85931 15.6016 5.82944 15.4906 5.79307 15.381C5.54675 14.6277 5.41216 13.83 5.41216 13.0008C5.41216 12.1379 5.5579 11.3119 5.82363 10.5317C6.87179 7.45486 9.81607 5.15673 13.2706 5.15673C13.9655 5.15673 14.6346 5.23944 15.2692 5.40441C16.7194 5.78143 17.7452 6.52396 18.3737 7.1113L22.1664 3.39707C19.8593 1.28176 16.8518 3.19819e-09 13.2643 3.19819e-09C10.3964 -6.17275e-05 7.74854 0.893513 5.57874 2.40368C3.81909 3.62839 2.37593 5.26812 1.40197 7.17248C0.496048 8.93822 0 10.895 0 12.9989C0 15.1029 0.496807 17.08 1.40273 18.8294V18.8412C2.35961 20.6984 3.75889 22.2975 5.45957 23.5166C6.9453 24.5816 9.60935 26 13.2643 26C15.3662 26 17.2291 25.621 18.872 24.9109C20.0571 24.3985 21.1072 23.7303 22.0578 22.8715C23.314 21.7368 24.2978 20.3332 24.9693 18.7184C25.6408 17.1035 26 15.2774 26 13.2976C26 12.3755 25.9074 11.4391 25.7503 10.5881V10.5882Z" fill="white"/>
</g>
<defs>
<clipPath id="clip0_5_591">
<rect width="26" height="26" fill="white"/>
</clipPath>
</defs>
</svg>
